<svg id="color_line" height="512" viewBox="0 0 74 74" width="512" xmlns="http://www.w3.org/2000/svg" data-name="color line"><path d="m1.312 11.473 71.375-2.125-60.293 17.584z" fill="#eeefee"/><path d="m12.4 27.432a.5.5 0 0 1 -.407-.208l-11.087-15.46a.5.5 0 0 1 .392-.791l71.375-2.125a.506.506 0 0 1 .508.422.5.5 0 0 1 -.353.558l-60.293 17.584a.488.488 0 0 1 -.135.02zm-10.134-15.488 10.334 14.409 56.189-16.389z" fill="#323c6b"/><path d="m72.687 9.348-36.78 51.307-14.648-21.317z" fill="#eeefee"/><path d="m72.69 9.35-36.78 51.3-14.65-21.31 14.51 14.71 28.54-39.81z" fill="#e1e6e9"/><path d="m72.687 9.348-51.428 29.99-7.155 12.468-1.71-24.862v-.012z" fill="#eeefee"/><path d="m14.1 52.306a.476.476 0 0 1 -.112-.013.5.5 0 0 1 -.387-.453l-1.701-24.862a.513.513 0 0 1 .358-.526l60.289-17.584a.5.5 0 0 1 .392.912l-51.313 29.92-7.088 12.355a.5.5 0 0 1 -.438.251zm-1.18-25.006 1.57 22.829 6.336-11.04a.5.5 0 0 1 .181-.183l47.908-27.937z" fill="#323c6b"/><path d="m14.104 51.806 13.105-3.809-5.95-8.659z" fill="#e1e6e9"/><g fill="#323c6b"><path d="m14.1 52.306a.5.5 0 0 1 -.434-.749l7.156-12.468a.5.5 0 0 1 .413-.251.505.505 0 0 1 .432.217l5.951 8.659a.5.5 0 0 1 -.273.763l-13.1 3.809a.488.488 0 0 1 -.145.02zm7.2-12.03-6.143 10.7 11.252-3.27z"/><path d="m25.3 8.382-1-.01a.5.5 0 0 1 0-1l1.005.01a.5.5 0 0 1 -.006 1z"/><path d="m27.892 8.41a.5.5 0 0 1 0-1l11.358-.038a.5.5 0 0 1 0 1l-11.356.038z"/><path d="m36.028 66.628a.5.5 0 0 1 -.412-.216l-2.174-3.164a.5.5 0 1 1 .824-.567l1.742 2.535 4.163-6.674a.5.5 0 0 1 .849.529l-4.567 7.322a.5.5 0 0 1 -.413.235z"/><path d="m32.028 60.806a.5.5 0 0 1 -.413-.217l-.372-.541a.5.5 0 0 1 .824-.567l.372.542a.5.5 0 0 1 -.411.783z"/><path d="m35.907 61.155a.5.5 0 0 1 -.407-.217l-14.653-21.317a.5.5 0 0 1 .16-.715l51.429-29.99a.5.5 0 0 1 .658.723l-36.781 51.307a.5.5 0 0 1 -.406.209zm-13.93-21.655 13.939 20.285 35-48.827z"/></g></svg>